<svg width="24" height="24" viewBox="0 0 24 24" fill="none" xmlns="http://www.w3.org/2000/svg">
<path d="M12 4C9.81654 4 7.70753 4.79377 6.06591 6.23344C4.42429 7.6731 3.36202 9.66047 3.07702 11.8253C2.79202 13.9901 3.30372 16.1846 4.51679 18.0001C5.72986 19.8156 7.56157 21.1282 9.67064 21.6933C11.7797 22.2584 14.0223 22.0376 15.9806 21.0718C17.9389 20.1061 19.4793 18.4614 20.3149 16.4441C21.1505 14.4269 21.2242 12.1746 20.5224 10.107C20.0485 8.71105 19.2429 7.46351 18.1875 6.46432" stroke="#2A2F36" stroke-width="2"/>
<path d="M15.3675 3.58266C15.667 3.78028 15.667 4.21972 15.3675 4.41734L11.5254 6.95249C11.1929 7.17183 10.75 6.93342 10.75 6.53515L10.75 1.46485C10.75 1.06657 11.1929 0.828165 11.5254 1.04751L15.3675 3.58266Z" fill="#2A2F36"/>
<path d="M9.15234 16.3413H10.2861V10H9.15674L7.5 11.1602V12.25L9.07764 11.1426H9.15234V16.3413Z" fill="#2A2F36"/>
<path d="M14.2764 16.4995C15.6826 16.4995 16.6274 15.5942 16.6274 14.2715C16.6274 13.0278 15.7749 12.1445 14.5708 12.1445C13.96 12.1445 13.5117 12.3599 13.2305 12.7378H13.1558L13.3096 10.958H16.2495V10H12.4307L12.1011 13.6475H13.1294C13.3623 13.2563 13.771 13.0234 14.2939 13.0234C15.0234 13.0234 15.5332 13.5376 15.5332 14.2979C15.5332 15.0537 15.0278 15.5547 14.2852 15.5547C13.6304 15.5547 13.1338 15.168 13.0635 14.5835H12C12.0527 15.6997 12.9624 16.4995 14.2764 16.4995Z" fill="#2A2F36"/>
</svg>
