<svg width="24" height="24" viewBox="0 0 24 24" fill="none" xmlns="http://www.w3.org/2000/svg">
<path d="M4.28577 6.85714H6.00005M6.00005 6.85714H19.7143M6.00005 6.85714V18.8571C6.00005 19.3118 6.18066 19.7478 6.50216 20.0693C6.82365 20.3908 7.25968 20.5714 7.71434 20.5714H16.2858C16.7404 20.5714 17.1765 20.3908 17.498 20.0693C17.8194 19.7478 18.0001 19.3118 18.0001 18.8571V6.85714H6.00005ZM8.57148 6.85714V5.14286C8.57148 4.6882 8.75209 4.25217 9.07358 3.93068C9.39508 3.60919 9.83111 3.42857 10.2858 3.42857H13.7143C14.169 3.42857 14.605 3.60919 14.9265 3.93068C15.248 4.25217 15.4286 4.6882 15.4286 5.14286V6.85714M10.2858 11.1429V16.2857M13.7143 11.1429V16.2857" stroke="#2A2F36" stroke-width="2" stroke-linecap="round" stroke-linejoin="round"/>
</svg>
