<svg width="24" height="24" viewBox="0 0 24 24" fill="none" xmlns="http://www.w3.org/2000/svg">
<path d="M12 4C14.1835 4 16.2925 4.79377 17.9341 6.23344C19.5757 7.6731 20.638 9.66047 20.923 11.8253C21.208 13.9901 20.6963 16.1846 19.4832 18.0001C18.2701 19.8156 16.4384 21.1282 14.3294 21.6933C12.2203 22.2584 9.97769 22.0376 8.0194 21.0718C6.0611 20.1061 4.52066 18.4614 3.68508 16.4441C2.84951 14.4269 2.77578 12.1746 3.47763 10.107C3.9515 8.71105 4.75712 7.46351 5.8125 6.46432" stroke="#2A2F36" stroke-width="2"/>
<path d="M8.63249 3.58266C8.33299 3.78028 8.33299 4.21972 8.63249 4.41734L12.4746 6.95249C12.8071 7.17183 13.25 6.93342 13.25 6.53515L13.25 1.46485C13.25 1.06657 12.8071 0.828165 12.4746 1.04751L8.63249 3.58266Z" fill="#2A2F36"/>
<path d="M9.15234 16.3413H10.2861V10H9.15674L7.5 11.1602V12.25L9.07764 11.1426H9.15234V16.3413Z" fill="#2A2F36"/>
<path d="M14.2764 16.4995C15.6826 16.4995 16.6274 15.5942 16.6274 14.2715C16.6274 13.0278 15.7749 12.1445 14.5708 12.1445C13.96 12.1445 13.5117 12.3599 13.2305 12.7378H13.1558L13.3096 10.958H16.2495V10H12.4307L12.1011 13.6475H13.1294C13.3623 13.2563 13.771 13.0234 14.2939 13.0234C15.0234 13.0234 15.5332 13.5376 15.5332 14.2979C15.5332 15.0537 15.0278 15.5547 14.2852 15.5547C13.6304 15.5547 13.1338 15.168 13.0635 14.5835H12C12.0527 15.6997 12.9624 16.4995 14.2764 16.4995Z" fill="#2A2F36"/>
</svg>
